<svg viewBox="0 0 80 23" fill="none" xmlns="http://www.w3.org/2000/svg">
<path d="M40 0C33.6656 0 28.5312 5.13828 28.5312 11.4775C28.5312 17.8166 33.6656 22.9549 40 22.9549C46.3344 22.9549 51.4688 17.8166 51.4688 11.4775C51.4688 5.13828 46.3344 0 40 0ZM46.256 17.7382C44.5856 19.4098 42.3632 20.3305 40 20.3305C37.6368 20.3305 35.416 19.4098 33.744 17.7382C32.0736 16.0665 31.1536 13.8424 31.1536 11.4775C31.1536 9.11248 32.0736 6.89 33.744 5.21674C35.4144 3.54508 37.6368 2.62438 40 2.62438C42.3632 2.62438 44.584 3.54508 46.256 5.21674C47.9264 6.8884 48.8464 9.11248 48.8464 11.4775C48.8464 13.8424 47.9264 16.0649 46.256 17.7382ZM19.0288 0.421118H22.144V22.5834H19.0288V0.421118ZM0 0.421118H3.1152V22.5834H0V0.421118ZM9.5152 0.421118H12.6304V22.5834H9.5152V0.421118ZM80 0.421118V3.10154H57.8544V0.421118H80ZM57.8544 9.8122H80V12.4926H60.9712V22.5834H57.856V9.8122H57.8544Z" fill="currentColor"/>
</svg>
